<svg xmlns="http://www.w3.org/2000/svg" xmlns:xlink="http://www.w3.org/1999/xlink" xmlns:inkscape="http://www.inkscape.org/namespaces/inkscape" version="1.1" width="1584" height="1584" viewBox="0 0 1584 1584">
<defs>
<clipPath id="clip_1">
<path transform="matrix(1,0,0,-1,0,1584)" d="M0 1584H1584V0H0Z"/>
</clipPath>
</defs>
<path transform="matrix(1,0,0,-1,0,1584)" d="M1379.05 660.234H826.88406V1020.234H1379.05Z" fill="#003462"/>
<path transform="matrix(1,0,0,-1,1313.9459,604.5207)" d="M0 0V1.723H10.542V0H5.817L6.268 .463V-11.654H4.273V.463L4.714 0Z" fill="#ffffff"/>
<path transform="matrix(1,0,0,-1,1327.0707,602.798)" d="M0 0H2.866L7.108-8.789H6.919L11.161 0H13.933V-13.377H11.917V-2.195H12.243L7.665-11.791H6.353L1.795-2.248H1.995V-13.377H0Z" fill="#ffffff"/>
<path transform="matrix(1,0,0,-1,1198.4241,588.2131)" d="M0 0 5.668-10.352 17.409-11.552 9.315-20.142 11.802-31.679 1.132-26.635-9.072-32.566-7.573-20.859-16.366-12.987-4.769-10.796Z" fill="#fcb827"/>
<g clip-path="url(#clip_1)">
<path transform="matrix(1,0,0,-1,1212.189,862.7674)" d="M0 0C0 0-73.772 67.171-13.564 240.751-17.347 199.788-13.685 154.909 5.458 126.506 35.555 170.961 94.761 178.694 127.172 175.342 69.607 155.957 13.648 100.481 0 0" fill="#0097dc"/>
<path transform="matrix(1,0,0,-1,1245.7662,684.192)" d="M0 0C-.429-8.502-7.669-15.046-16.171-14.616-24.672-14.187-31.216-6.947-30.787 1.555-30.358 10.056-23.118 16.6-14.616 16.171-6.115 15.742 .429 8.502 0 0" fill="#fcb827"/>
<path transform="matrix(1,0,0,-1,0,1584)" d="M826.884 1020.234H204.95099V660.234H826.884ZM820.884 666.234H210.95099V1014.234H820.884Z" fill="#003462"/>
<path transform="matrix(1,0,0,-1,476.0661,699.1749)" d="M0 0H-62.675C-71.297 15.927-87.215 24.399-108.438 24.399-144.916 24.399-169.124-2.034-169.124-43.377-169.124-87.433-144.584-113.188-103.796-113.188-75.608-113.188-56.043-97.938-47.421-71.166H-119.381V-28.467H3.979V-82.349C-7.959-123.354-46.758-164.358-108.107-164.358-177.746-164.358-226.825-114.543-226.825-43.377-226.825 27.788-178.077 77.942-108.438 77.942-52.727 77.942-12.27 48.799 0 0" fill="#0672ba"/>
<path transform="matrix(1,0,0,-1,509.2373,623.9435)" d="M0 0H66.986L132.314-164.697 196.979 0H263.634V-237.896H206.928V-95.226L154.864-237.896H109.101L56.706-94.887V-237.896H0Z" fill="#0672ba"/>
<path transform="matrix(1,0,0,-1,0,1584)" d="M876.053 960.057H934.00198V722.161H876.053Z" fill="#ffffff"/>
<path transform="matrix(1,0,0,-1,963.1461,623.9435)" d="M0 0H184.013V-46.427H120.981V-237.896H63.032V-46.427H0Z" fill="#ffffff"/>
<path transform="matrix(1,0,0,-1,0,1584)" d="M1379.05 563.766H204.95105V569.766H1379.05Z" fill="#003462"/>
<path transform="matrix(1,0,0,-1,591.2385,968.134)" d="M0 0H5.878C7.644 0 8.979 .492 9.882 1.478 10.785 2.462 11.237 3.614 11.237 4.934 11.237 6.274 10.785 7.441 9.882 8.437 8.979 9.431 7.644 9.929 5.878 9.929H0ZM-9.806-22.505V18.364H5.878C10.587 18.364 14.323 17.232 17.085 14.969 19.845 12.704 21.226 9.359 21.226 4.934 21.226 .528 19.845-2.816 17.085-5.101 14.323-7.385 10.587-8.526 5.878-8.526H0V-22.505Z" fill="#003462"/>
<path transform="matrix(1,0,0,-1,629.7318,949.7697)" d="M0 0V-32.342H15.44V-40.869H-9.745V0Z" fill="#003462"/>
<path transform="matrix(1,0,0,-1,663.9915,976.2346)" d="M0 0H9.41L4.781 14.953ZM-15.044-14.404-1.279 26.465H11.116L24.119-14.404H13.857L11.633-7.217H-2.467L-4.69-14.404Z" fill="#003462"/>
<path transform="matrix(1,0,0,-1,711.1027,991.6135)" d="M0 0C-3.574 0-6.715 .803-9.425 2.406-12.136 4.01-14.252 6.396-15.775 9.563-17.298 12.729-18.059 16.658-18.059 21.349-18.059 26.058-17.303 29.997-15.79 33.164-14.278 36.331-12.162 38.722-9.441 40.336-6.72 41.95-3.574 42.757 0 42.757 5.157 42.757 9.085 41.539 11.786 39.103 14.486 36.666 16.09 33.509 16.597 29.632L6.243 27.835C5.776 29.581 5.04 31.027 4.035 32.175 3.03 33.321 1.685 33.896 0 33.896-1.503 33.896-2.827 33.443-3.974 32.54-5.122 31.637-6.01 30.261-6.639 28.413-7.268 26.565-7.583 24.211-7.583 21.349-7.583 18.547-7.258 16.227-6.609 14.39-5.959 12.552-5.061 11.187-3.913 10.294-2.767 9.399-1.462 8.953 0 8.953 2.091 8.953 3.654 9.507 4.69 10.613 5.725 11.72 6.243 13.064 6.243 14.648H16.536C16.536 11.501 15.902 8.837 14.633 6.654 13.364 4.472 11.501 2.817 9.045 1.69 6.588 .563 3.573 0 0 0" fill="#003462"/>
<path transform="matrix(1,0,0,-1,736.623,990.6389)" d="M0 0V40.869H27.317V32.434H9.745V24.576H26.221V16.11H9.745V8.527H27.317V0Z" fill="#003462"/>
<path transform="matrix(1,0,0,-1,775.1774,949.7697)" d="M0 0H13.948L22.993-21.805H22.231L31.276 0H44.676V-40.869H34.87V-11.786H36.21L25.703-37.063H19.399L8.953-11.847H9.745V-40.869H0Z" fill="#003462"/>
<path transform="matrix(1,0,0,-1,831.364,990.6389)" d="M0 0V40.869H27.317V32.434H9.745V24.576H26.221V16.11H9.745V8.527H27.317V0Z" fill="#003462"/>
<path transform="matrix(1,0,0,-1,869.7358,949.7697)" d="M0 0H10.172L26.586-24.729H25.916V0H35.661V-40.869H26.251L8.131-13.704H9.745V-40.869H0Z" fill="#003462"/>
<path transform="matrix(1,0,0,-1,912.1271,958.2053)" d="M0 0V8.436H33.651V0H19.551L21.744 2.192V-32.434H11.999V2.192L14.192 0Z" fill="#003462"/>
<path transform="matrix(1,0,0,-1,967.8574,991.6135)" d="M0 0C-2.924 0-5.634 .492-8.131 1.478-10.628 2.462-12.659 4.005-14.222 6.106-15.786 8.207-16.648 10.943-16.81 14.313H-7.187C-7.187 13.075-6.873 12.05-6.243 11.237-5.614 10.425-4.756 9.826-3.67 9.44-2.584 9.055-1.381 8.862-.061 8.862 .995 8.862 1.984 8.953 2.908 9.137 3.832 9.319 4.578 9.644 5.147 10.11 5.715 10.577 5.999 11.217 5.999 12.029 5.999 13.023 5.7 13.766 5.101 14.253 4.502 14.739 3.421 15.298 1.858 15.928L-7.035 19.795C-9.958 21.054-12.232 22.536-13.857 24.241-15.481 25.946-16.293 28.271-16.293 31.215-16.293 34.667-14.887 37.453-12.075 39.575-9.263 41.696-5.411 42.757-.518 42.757 4.456 42.757 8.273 41.585 10.933 39.24 13.592 36.895 15.085 33.55 15.41 29.205H5.847C5.604 30.545 5.01 31.672 4.066 32.586 3.122 33.499 1.594 33.956-.518 33.956-2.04 33.956-3.269 33.677-4.203 33.118-5.137 32.56-5.604 31.865-5.604 31.032-5.604 30.261-5.304 29.651-4.705 29.205-4.107 28.759-3.208 28.271-2.01 27.743L7.4 23.754C10.527 22.394 12.856 20.8 14.389 18.973 15.922 17.146 16.689 14.953 16.689 12.395 16.689 9.654 16.034 7.364 14.724 5.527 13.415 3.689 11.516 2.31 9.03 1.386 6.542 .462 3.533 0 0 0" fill="#003462"/>
<path transform="matrix(1,0,0,-1,229.5533,958.2053)" d="M0 0V8.436H33.651V0H19.551L21.744 2.192V-32.434H11.999V2.192L14.191 0Z" fill="#003462"/>
<path transform="matrix(1,0,0,-1,291.222,990.6389)" d="M0 0-9.958 19.734H.335L12.76 0ZM-11.572 21.5H-6.456C-4.04 21.5-2.228 22.003-1.02 23.008 .187 24.013 .792 25.297 .792 26.86 .792 28.484 .279 29.819-.746 30.865-1.772 31.91-3.309 32.434-5.36 32.434H-11.572ZM-21.318 0V40.869H-5.36C-.244 40.869 3.731 39.696 6.563 37.352 9.395 35.007 10.811 31.864 10.811 27.926 10.811 24.068 9.395 20.978 6.563 18.653 3.731 16.328-.244 15.166-5.36 15.166H-11.572V0Z" fill="#003462"/>
<path transform="matrix(1,0,0,-1,323.2896,976.2346)" d="M0 0H9.41L4.781 14.953ZM-15.044-14.404-1.279 26.465H11.116L24.119-14.404H13.856L11.633-7.217H-2.467L-4.69-14.404Z" fill="#003462"/>
<path transform="matrix(1,0,0,-1,0,1584)" d="M354.869 634.23H364.61399V593.36099H354.869Z" fill="#003462"/>
<path transform="matrix(1,0,0,-1,376.0034,949.7697)" d="M0 0H10.172L26.586-24.729H25.916V0H35.661V-40.869H26.251L8.131-13.704H9.745V-40.869H0Z" fill="#003462"/>
<path transform="matrix(1,0,0,-1,0,1584)" d="M423.176 634.23H432.921V593.36099H423.176Z" fill="#003462"/>
<path transform="matrix(1,0,0,-1,444.3102,949.7697)" d="M0 0H10.172L26.586-24.729H25.916V0H35.661V-40.869H26.251L8.131-13.704H9.745V-40.869H0Z" fill="#003462"/>
<path transform="matrix(1,0,0,-1,517.2163,990.6389)" d="M0 0-1.218 8.405V15.653L-9.349 15.714V21.684H8.04V0ZM-10.263-.975C-13.694-.975-16.765-.061-19.475 1.767-22.186 3.594-24.328 6.116-25.901 9.334-27.475 12.552-28.261 16.252-28.261 20.435-28.261 23.581-27.8 26.459-26.875 29.068-25.952 31.677-24.632 33.931-22.916 35.829-21.201 37.727-19.151 39.194-16.765 40.229-14.379 41.265-11.725 41.782-8.801 41.782-4.375 41.782-.772 40.782 2.01 38.783 4.791 36.783 6.771 33.651 7.948 29.388L-2.406 27.53C-3.096 29.215-4.01 30.545-5.147 31.52-6.284 32.494-7.685 32.981-9.349 32.981-10.933 32.981-12.359 32.474-13.628 31.459-14.897 30.443-15.897 29.002-16.628 27.135-17.359 25.267-17.724 23.033-17.724 20.435-17.724 17.855-17.359 15.628-16.628 13.75-15.897 11.872-14.897 10.425-13.628 9.41-12.359 8.395-10.933 7.888-9.349 7.888-7.786 7.888-6.391 8.218-5.162 8.877-3.934 9.537-2.969 10.431-2.269 11.558-1.568 12.684-1.218 13.928-1.218 15.288H.487C.487 11.958 .091 9.075-.7 6.639-1.492 4.202-2.68 2.324-4.264 1.005-5.847-.314-7.847-.975-10.263-.975" fill="#003462"/>
<path transform="matrix(1,0,0,-1,1052.1433,968.134)" d="M0 0H5.878C7.644 0 8.979 .492 9.882 1.478 10.785 2.462 11.237 3.614 11.237 4.934 11.237 6.274 10.785 7.441 9.882 8.437 8.979 9.431 7.644 9.929 5.878 9.929H0ZM-9.806-22.505V18.364H5.878C10.587 18.364 14.323 17.232 17.085 14.969 19.845 12.704 21.226 9.359 21.226 4.934 21.226 .528 19.845-2.816 17.085-5.101 14.323-7.385 10.587-8.526 5.878-8.526H0V-22.505Z" fill="#003462"/>
<path transform="matrix(1,0,0,-1,1102.209,990.6389)" d="M0 0-9.958 19.734H.335L12.76 0ZM-11.572 21.5H-6.456C-4.04 21.5-2.228 22.003-1.02 23.008 .187 24.013 .792 25.297 .792 26.86 .792 28.484 .279 29.819-.746 30.865-1.772 31.91-3.309 32.434-5.36 32.434H-11.572ZM-21.318 0V40.869H-5.36C-.244 40.869 3.731 39.696 6.563 37.352 9.395 35.007 10.811 31.864 10.811 27.926 10.811 24.068 9.395 20.978 6.563 18.653 3.731 16.328-.244 15.166-5.36 15.166H-11.572V0Z" fill="#003462"/>
<path transform="matrix(1,0,0,-1,1140.0628,982.8732)" d="M0 0C2.842 0 5.116 1.122 6.822 3.365 8.527 5.608 9.38 8.771 9.38 12.852 9.38 16.688 8.527 19.719 6.822 21.942 5.116 24.165 2.842 25.276 0 25.276-2.761 25.276-4.994 24.165-6.7 21.942-8.405 19.719-9.258 16.668-9.258 12.791-9.258 8.75-8.405 5.608-6.7 3.365-4.994 1.122-2.761 0 0 0M0-8.74C-3.878-8.74-7.263-7.923-10.156-6.289-13.049-4.654-15.298-2.238-16.902 .959-18.506 4.157-19.308 8.101-19.308 12.791-19.308 17.603-18.506 21.576-16.902 24.713-15.298 27.851-13.049 30.185-10.156 31.718-7.263 33.25-3.878 34.017 0 34.017 3.918 34.017 7.334 33.215 10.248 31.611 13.161 30.007 15.42 27.632 17.024 24.485 18.627 21.338 19.43 17.439 19.43 12.791 19.43 8.02 18.627 4.035 17.024 .838 15.42-2.36 13.161-4.756 10.248-6.35 7.334-7.943 3.918-8.74 0-8.74" fill="#003462"/>
<path transform="matrix(1,0,0,-1,1164.7909,989.2385)" d="M0 0V9.532C1.807 8.599 3.543 7.964 5.208 7.629 6.872 7.294 8.354 7.127 9.654 7.127 10.973 7.127 11.973 7.508 12.654 8.269 13.334 9.03 13.674 10.334 13.674 12.182V39.469H23.541V12.182C23.541 8.568 22.967 5.7 21.82 3.579 20.673 1.457 19.125-.065 17.176-.989 15.227-1.913 13.024-2.375 10.568-2.375 8.619-2.375 6.75-2.151 4.964-1.705 3.177-1.259 1.523-.69 0 0" fill="#003462"/>
<path transform="matrix(1,0,0,-1,1199.1727,990.6389)" d="M0 0V40.869H27.317V32.434H9.745V24.576H26.221V16.11H9.745V8.527H27.317V0Z" fill="#003462"/>
<path transform="matrix(1,0,0,-1,1253.2586,991.6135)" d="M0 0C-3.573 0-6.715 .803-9.425 2.406-12.136 4.01-14.252 6.396-15.775 9.563-17.298 12.729-18.059 16.658-18.059 21.349-18.059 26.058-17.303 29.997-15.79 33.164-14.278 36.331-12.161 38.722-9.441 40.336-6.72 41.95-3.573 42.757 0 42.757 5.157 42.757 9.085 41.539 11.786 39.103 14.486 36.666 16.09 33.509 16.597 29.632L6.243 27.835C5.776 29.581 5.04 31.027 4.035 32.175 3.03 33.321 1.685 33.896 0 33.896-1.503 33.896-2.827 33.443-3.974 32.54-5.121 31.637-6.01 30.261-6.639 28.413-7.268 26.565-7.583 24.211-7.583 21.349-7.583 18.547-7.258 16.227-6.608 14.39-5.959 12.552-5.061 11.187-3.913 10.294-2.766 9.399-1.462 8.953 0 8.953 2.091 8.953 3.655 9.507 4.69 10.613 5.725 11.72 6.243 13.064 6.243 14.648H16.536C16.536 11.501 15.902 8.837 14.633 6.654 13.364 4.472 11.501 2.817 9.045 1.69 6.588 .563 3.573 0 0 0" fill="#003462"/>
<path transform="matrix(1,0,0,-1,1274.0585,958.2053)" d="M0 0V8.436H33.651V0H19.551L21.744 2.192V-32.434H11.999V2.192L14.191 0Z" fill="#003462"/>
<path transform="matrix(1,0,0,-1,1329.7887,991.6135)" d="M0 0C-2.924 0-5.634 .492-8.131 1.478-10.628 2.462-12.659 4.005-14.222 6.106-15.786 8.207-16.648 10.943-16.811 14.313H-7.187C-7.187 13.075-6.873 12.05-6.243 11.237-5.614 10.425-4.756 9.826-3.67 9.44-2.584 9.055-1.381 8.862-.061 8.862 .995 8.862 1.984 8.953 2.908 9.137 3.832 9.319 4.578 9.644 5.147 10.11 5.715 10.577 5.999 11.217 5.999 12.029 5.999 13.023 5.7 13.766 5.101 14.253 4.502 14.739 3.421 15.298 1.858 15.928L-7.035 19.795C-9.958 21.054-12.232 22.536-13.856 24.241-15.481 25.946-16.293 28.271-16.293 31.215-16.293 34.667-14.887 37.453-12.075 39.575-9.263 41.696-5.411 42.757-.518 42.757 4.456 42.757 8.273 41.585 10.933 39.24 13.592 36.895 15.085 33.55 15.41 29.205H5.847C5.604 30.545 5.01 31.672 4.066 32.586 3.121 33.499 1.594 33.956-.518 33.956-2.04 33.956-3.269 33.677-4.203 33.118-5.137 32.56-5.604 31.865-5.604 31.032-5.604 30.261-5.304 29.651-4.705 29.205-4.107 28.759-3.208 28.271-2.01 27.743L7.4 23.754C10.526 22.394 12.856 20.8 14.389 18.973 15.922 17.146 16.689 14.953 16.689 12.395 16.689 9.654 16.034 7.364 14.724 5.527 13.415 3.689 11.516 2.31 9.03 1.386 6.542 .462 3.533 0 0 0" fill="#003462"/>
<path transform="matrix(1,0,0,-1,0,1584)" d="M557.062 645.619H547.515V585.672H557.062Z" fill="#003462"/>
<path transform="matrix(1,0,0,-1,0,1584)" d="M1018.171 645.62H1008.624V585.673H1018.171Z" fill="#003462"/>
</g>
</svg>
