<?xml version="1.0" encoding="UTF-8"?>
<svg version="1.1" xmlns="http://www.w3.org/2000/svg" width="1135" height="445">
<path d="M0 0 C374.55 0 749.1 0 1135 0 C1135 146.85 1135 293.7 1135 445 C760.45 445 385.9 445 0 445 C0 298.15 0 151.3 0 0 Z " fill="#0097DC" transform="translate(0,0)"/>
<path d="M0 0 C193.71 0 387.42 0 587 0 C587 111.54 587 223.08 587 338 C393.29 338 199.58 338 0 338 C0 226.46 0 114.92 0 0 Z " fill="#003563" transform="translate(10,9)"/>
<path d="M0 0 C374.55 0 749.1 0 1135 0 C1135 146.85 1135 293.7 1135 445 C760.45 445 385.9 445 0 445 C0 298.15 0 151.3 0 0 Z M8 7 C8 119.86 8 232.72 8 349 C97.51629379 349.17772337 97.51629379 349.17772337 187.03260227 349.34754448 C190.06057516 349.35312505 193.08854804 349.35870832 196.11652093 349.36429425 C219.26310782 349.40698153 242.40969563 349.44914961 265.55628413 349.49095565 C268.88657196 349.49697074 272.21685977 349.50299277 275.54714757 349.50902146 C360.0673242 349.66201458 444.58751977 349.80688219 897.2530916 350.06282836 C900.17544797 350.06238907 903.09780434 350.06196275 906.02016071 350.06153601 C926.19478036 350.05858375 946.36939989 350.05514275 966.54401937 350.05117548 C968.50008276 350.05079126 970.45614616 350.05041093 972.41220956 350.05003071 C1023.60814257 350.03998746 1074.80406879 350.01904532 1126 350 C1126 236.81 1126 123.62 1126 7 C757.06 7 388.12 7 8 7 Z " fill="#013563" transform="translate(0,0)"/>
<path d="M0 0 C21.12 0 42.24 0 64 0 C66.5755265 5.151053 68.93198185 10.08240567 70.9609375 15.42578125 C71.22787918 16.11822937 71.49482086 16.81067749 71.76985168 17.52410889 C72.3429216 19.01123042 72.91433643 20.49899064 73.48422241 21.98733521 C75.02563186 26.01082102 76.58152966 30.02869954 78.13671875 34.046875 C78.45633072 34.87328995 78.77594269 35.6997049 79.10523987 36.55116272 C82.40799575 45.07817122 85.78600312 53.57447222 89.1875 62.0625 C89.62801193 63.16230698 89.62801193 63.16230698 90.0774231 64.28433228 C94.20270756 74.57790058 98.38305231 84.84817285 102.58642578 95.11010742 C109.01843161 110.87263725 115.22237999 126.72759864 121.46234131 142.56686401 C122.96543689 146.38175414 124.47180572 150.19506904 126 154 C130.68750532 144.3059445 134.49082868 134.26393799 138.38153076 124.23208618 C140.39745568 119.03495068 142.4236883 113.84183523 144.44921875 108.6484375 C144.84832458 107.62452408 145.24743042 106.60061066 145.65863037 105.54566956 C148.68694295 97.78330788 151.76225549 90.04143498 154.875 82.3125 C161.34786753 66.22557197 167.65408206 50.07325276 173.97216797 33.92504883 C176.31081866 27.94847501 178.65296051 21.97328461 181 16 C181.32440063 15.1739325 181.64880127 14.34786499 181.98303223 13.49676514 C182.83191972 11.33903945 183.6845411 9.18284328 184.5390625 7.02734375 C184.99748535 5.868396 185.4559082 4.70944824 185.92822266 3.51538086 C187 1 187 1 188 0 C208.79 0 229.58 0 251 0 C251 74.58 251 149.16 251 226 C233.18 226 215.36 226 197 226 C196.67 182.77 196.34 139.54 196 95 C189.4 113.15 182.8 131.3 176 150 C172.23780499 160.25332256 168.47251935 170.50514338 164.6875 180.75 C163.82605305 183.08459157 162.96472607 185.41922742 162.10351562 187.75390625 C160.53807615 191.99733758 158.97194353 196.24051148 157.4050293 200.48339844 C154.26644715 208.98761472 151.13378413 217.4940145 148 226 C133.48 226 118.96 226 104 226 C94.28707336 199.76679642 84.60842961 173.52273319 75.0378418 147.23730469 C68.43617501 129.12812526 61.71179002 111.07020389 55 93 C54.67 136.89 54.34 180.78 54 226 C36.18 226 18.36 226 0 226 C0 151.42 0 76.84 0 0 Z " fill="#FDFEFE" transform="translate(297,64)"/>
<path d="M0 0 C0.83294586 0.00620361 1.66589172 0.01240723 2.52407837 0.01879883 C26.37416541 0.22695918 48.53798801 5.01055422 68.125 19.5 C69.04539063 20.17675781 69.96578125 20.85351562 70.9140625 21.55078125 C86.10012206 33.32729851 97.72587487 50.62583129 102.70996094 69.22070312 C102.9761322 70.20977661 103.24230347 71.1988501 103.51654053 72.21789551 C103.71733215 72.97098999 103.91812378 73.72408447 104.125 74.5 C96.42350006 74.70908835 88.72229627 74.86872149 81.01859951 74.96630955 C77.44065633 75.01316536 73.86466273 75.07663729 70.2878418 75.17895508 C66.83172233 75.27719441 63.37746954 75.3306449 59.92006111 75.35389519 C57.96808815 75.37847194 56.01686081 75.44866681 54.06602478 75.51966858 C45.33605696 75.524611 45.33605696 75.524611 41.84182739 72.56832886 C40.07459636 70.29038787 38.62011084 67.96095079 37.125 65.5 C30.29200028 57.95138188 19.95398079 52.96943904 9.70239258 52.35473633 C6.78064483 52.33000955 3.85936029 52.31434112 0.9375 52.3125 C-0.56780273 52.29413086 -0.56780273 52.29413086 -2.10351562 52.27539062 C-16.88429465 52.2465407 -28.82480728 56.72235105 -39.625 67.08984375 C-52.80080224 81.20350692 -56.23586057 97.18327098 -56.1875 115.9375 C-56.20361328 117.18337891 -56.21972656 118.42925781 -56.23632812 119.71289062 C-56.24039737 127.4647996 -55.38534078 134.16416613 -52.875 141.5 C-52.51019531 142.593125 -52.14539063 143.68625 -51.76953125 144.8125 C-46.23628361 158.5557288 -37.72711745 168.99468712 -24.1875 175.375 C-8.69459114 181.85029711 10.803545 183.32979082 26.6328125 177.125 C43.55233978 169.23165682 50.98179128 158.64370092 58.125 141.5 C35.685 141.5 13.245 141.5 -9.875 141.5 C-9.875 127.97 -9.875 114.44 -9.875 100.5 C29.065 100.5 68.005 100.5 108.125 100.5 C108.125 143.91019067 107.64869288 170.75622592 79.3125 199.75 C58.73349567 220.05853176 29.91848165 230.63183359 1.25 230.875 C-31.45632954 230.5673772 -60.79803293 219.01238155 -83.875 195.5 C-104.22716582 172.54642952 -112.31821185 144.35267383 -112.4375 114.1875 C-112.44608032 113.38928833 -112.45466064 112.59107666 -112.46350098 111.76867676 C-112.69200672 81.49866136 -100.97637117 53.1982495 -80.40625 30.97265625 C-58.6945378 9.76352998 -30.00024619 -0.39965771 0 0 Z " fill="#FDFDFD" transform="translate(161.875,61.5)"/>
<path d="M0 0 C57.75 0 115.5 0 175 0 C175 14.52 175 29.04 175 44 C155.2 44 135.4 44 115 44 C115 104.06 115 164.12 115 226 C96.85 226 78.7 226 60 226 C60 165.94 60 105.88 60 44 C40.2 44 20.4 44 0 44 C0 29.48 0 14.96 0 0 Z " fill="#FEFEFE" transform="translate(730,64)"/>
<path d="M0 0 C18.48 0 36.96 0 56 0 C56 74.58 56 149.16 56 226 C37.52 226 19.04 226 0 226 C0 151.42 0 76.84 0 0 Z " fill="#FFFFFF" transform="translate(646,64)"/>
<path d="M0 0 C0.33 0 0.66 0 1 0 C1.01458252 1.05050537 1.02916504 2.10101074 1.04418945 3.18334961 C1.36079288 54.00729403 1.36079288 54.00729403 19 101 C19 101.66 19 102.32 19 103 C19.66 103 20.32 103 21 103 C21.24621094 102.43796875 21.49242187 101.8759375 21.74609375 101.296875 C33.65315983 79.48580068 61.30616482 67.69481316 84 61 C86.98663424 60.19430332 89.96098612 59.56835556 93 59 C93.82250244 58.83089111 94.64500488 58.66178223 95.49243164 58.48754883 C103.94003102 56.88280773 112.17648448 56.76555965 120.75 56.875 C122.14061846 56.88506283 123.53124408 56.89418277 124.921875 56.90234375 C128.28143819 56.92567405 131.64062175 56.9584077 135 57 C132.34172669 59.65827331 129.22720325 60.70440666 125.8125 62.125 C113.8173637 67.25684168 102.44136496 73.10575002 92 81 C91.25492188 81.55300781 90.50984375 82.10601562 89.7421875 82.67578125 C56.51079993 107.85984674 35.31902093 144.32014148 24 184 C23.46632813 185.80404297 23.46632813 185.80404297 22.921875 187.64453125 C19.54307615 199.59099862 17.3425683 211.81719881 15 224 C-6.86217274 203.05672769 -14.33803591 171.7759117 -19 143 C-19.17958252 141.93845703 -19.35916504 140.87691406 -19.54418945 139.78320312 C-20.10609814 135.11939114 -20.19964118 130.5294627 -20.23828125 125.8359375 C-20.24816574 124.85908997 -20.25805023 123.88224243 -20.26823425 122.87579346 C-20.58360963 83.54978685 -18.06902688 36.13805376 0 0 Z " fill="#FCFEFE" transform="translate(952,67)"/>
<path d="M0 0 C369.27 0 738.54 0 1119 0 C1119 0.99 1119 1.98 1119 3 C749.73 3 380.46 3 0 3 C0 2.01 0 1.02 0 0 Z " fill="#0091D6" transform="translate(7,437)"/>
<path d="M0 0 C4.93461319 2.29107041 7.35281968 5.29390165 10 10 C12.44246841 17.69943684 11.61607399 25.89254423 8 33 C3.88671716 37.00781405 -0.03861588 39.28407269 -5.8125 39.375 C-11.05709218 39.25141609 -13.82210416 38.17520084 -18 35 C-23.6399812 27.72739266 -23.72769393 20.95467812 -23 12 C-21.47163428 7.03281141 -18.23920513 3.90050877 -14 1 C-9.81388848 -1.09305576 -4.55867052 -0.42364608 0 0 Z " fill="#F5F7F9" transform="translate(907,375)"/>
<path d="M0 0 C3.3 0 6.6 0 10 0 C10 12.54 10 25.08 10 38 C7.69 38 5.38 38 3 38 C2.67 30.08 2.34 22.16 2 14 C-0.97 20.6 -3.94 27.2 -7 34 C-8.65 34 -10.3 34 -12 34 C-15.33333333 27.33333333 -18.66666667 20.66666667 -22 14 C-22.33 21.92 -22.66 29.84 -23 38 C-25.31 38 -27.62 38 -30 38 C-30 25.79 -30 13.58 -30 1 C-26.7 1 -23.4 1 -20 1 C-18.67997444 3.55886504 -17.36886218 6.12167068 -16.0625 8.6875 C-15.68931641 9.40873047 -15.31613281 10.12996094 -14.93164062 10.87304688 C-13.06034761 14.56505742 -11.51730444 17.83693096 -11 22 C-10.34 22 -9.68 22 -9 22 C-8.62875 20.783125 -8.2575 19.56625 -7.875 18.3125 C-5.77975504 11.97615532 -2.87210465 6.01375958 0 0 Z " fill="#F7F8FA" transform="translate(581,375)"/>
<path d="M0 0 C20.65714286 0 20.65714286 0 26.4375 5.1875 C28.46768844 8.84183919 28.92781473 11.96636477 28 16 C26.57826216 18.56672519 25.20126839 19.95230847 23 22 C22.01 22 21.02 22 20 22 C22.96293636 27.35514317 25.95137669 32.6931372 29 38 C26.03 38 23.06 38 20 38 C19.22076172 36.50146484 19.22076172 36.50146484 18.42578125 34.97265625 C17.72225365 33.6687851 17.01777669 32.36542588 16.3125 31.0625 C15.97283203 30.40314453 15.63316406 29.74378906 15.28320312 29.06445312 C14.13704352 26.88974902 14.13704352 26.88974902 12 24 C10.35 23.67 8.7 23.34 7 23 C7 27.95 7 32.9 7 38 C4.69 38 2.38 38 0 38 C0 25.46 0 12.92 0 0 Z " fill="#F6F7F9" transform="translate(848,375)"/>
<path d="M0 0 C3.17625 -0.0825 6.3525 -0.165 9.625 -0.25 C10.6145166 -0.28641602 11.6040332 -0.32283203 12.62353516 -0.36035156 C18.43058264 -0.43313041 21.55791115 0.1904646 26 4 C28.26976346 6.7631903 27.9957169 8.26983516 27.9375 11.9375 C27.27139713 16.23105465 25.4790661 18.34928297 22 21 C21.01 21 20.02 21 19 21 C19.721875 22.07121094 20.44375 23.14242188 21.1875 24.24609375 C22.1251205 25.6431483 23.06261397 27.04028812 24 28.4375 C24.47695312 29.14455078 24.95390625 29.85160156 25.4453125 30.58007812 C26.12207031 31.59038086 26.12207031 31.59038086 26.8125 32.62109375 C27.23144531 33.2442749 27.65039062 33.86745605 28.08203125 34.50952148 C29 36 29 36 29 37 C25.81417842 37.63716432 23.15630053 37.85987306 20 37 C17.34505764 33.97770712 15.73261572 30.60724913 14 27 C13.34 26.01 12.68 25.02 12 24 C10.35 23.67 8.7 23.34 7 23 C7 27.62 7 32.24 7 37 C4.69 37 2.38 37 0 37 C0 24.79 0 12.58 0 0 Z " fill="#F2F5F7" transform="translate(76,376)"/>
<path d="M0 0 C2.31 0 4.62 0 7 0 C7 12.54 7 25.08 7 38 C-1 38 -1 38 -2.85449219 36.44287109 C-3.24797852 35.72695801 -3.64146484 35.01104492 -4.046875 34.2734375 C-4.49933594 33.48839844 -4.95179688 32.70335937 -5.41796875 31.89453125 C-5.85753906 31.06308594 -6.29710937 30.23164063 -6.75 29.375 C-7.66071099 27.75739152 -8.57215535 26.14019568 -9.484375 24.5234375 C-9.87334961 23.80075684 -10.26232422 23.07807617 -10.66308594 22.33349609 C-12.30289836 19.47131072 -14.17023836 16.74464246 -16 14 C-16.33 21.92 -16.66 29.84 -17 38 C-19.31 38 -21.62 38 -24 38 C-24 25.79 -24 13.58 -24 1 C-16 1 -16 1 -14.14550781 2.46533203 C-13.75202148 3.13935059 -13.35853516 3.81336914 -12.953125 4.5078125 C-12.27443359 5.61769531 -12.27443359 5.61769531 -11.58203125 6.75 C-11.14246094 7.53375 -10.70289063 8.3175 -10.25 9.125 C-9.79496094 9.88554687 -9.33992187 10.64609375 -8.87109375 11.4296875 C-8.01269864 12.86446895 -7.16636299 14.30659336 -6.33691406 15.75830078 C-4.66048818 18.56928369 -2.81549134 21.27676299 -1 24 C-0.67 16.08 -0.34 8.16 0 0 Z " fill="#F6F7F9" transform="translate(662,375)"/>
<path d="M0 0 C2.31 0 4.62 0 7 0 C7 12.54 7 25.08 7 38 C-1 38 -1 38 -2.85449219 36.44287109 C-3.24797852 35.72695801 -3.64146484 35.01104492 -4.046875 34.2734375 C-4.49933594 33.48839844 -4.95179688 32.70335937 -5.41796875 31.89453125 C-5.85753906 31.06308594 -6.29710937 30.23164063 -6.75 29.375 C-7.66071099 27.75739152 -8.57215535 26.14019568 -9.484375 24.5234375 C-9.87334961 23.80075684 -10.26232422 23.07807617 -10.66308594 22.33349609 C-12.30289836 19.47131072 -14.17023836 16.74464246 -16 14 C-16.33 21.92 -16.66 29.84 -17 38 C-19.31 38 -21.62 38 -24 38 C-24 25.79 -24 13.58 -24 1 C-16 1 -16 1 -14.14550781 2.46533203 C-13.75202148 3.13935059 -13.35853516 3.81336914 -12.953125 4.5078125 C-12.27443359 5.61769531 -12.27443359 5.61769531 -11.58203125 6.75 C-11.14246094 7.53375 -10.70289063 8.3175 -10.25 9.125 C-9.79496094 9.88554687 -9.33992187 10.64609375 -8.87109375 11.4296875 C-8.01269864 12.86446895 -7.16636299 14.30659336 -6.33691406 15.75830078 C-4.66048818 18.56928369 -2.81549134 21.27676299 -1 24 C-0.67 16.08 -0.34 8.16 0 0 Z " fill="#F6F7F9" transform="translate(256,375)"/>
<path d="M0 0 C8 0 8 0 10.17749023 1.95605469 C10.71575439 2.85227539 11.25401855 3.74849609 11.80859375 4.671875 C12.40994141 5.64640625 13.01128906 6.6209375 13.63085938 7.625 C14.22705078 8.65625 14.82324219 9.6875 15.4375 10.75 C16.06076172 11.76578125 16.68402344 12.7815625 17.32617188 13.828125 C22.2210738 21.92415431 22.2210738 21.92415431 23 26 C23.66 26 24.32 26 25 26 C25 17.75 25 9.5 25 1 C26.98 1 28.96 1 31 1 C31 13.21 31 25.42 31 38 C28.69 38 26.38 38 24 38 C21.88653346 35.67239368 20.49155531 33.78763182 18.9375 31.125 C18.54240234 30.49335938 18.14730469 29.86171875 17.74023438 29.2109375 C16.46528271 27.15787523 15.23356816 25.07819056 14 23 C12.02 19.7 10.04 16.4 8 13 C7.67 21.25 7.34 29.5 7 38 C4.69 38 2.38 38 0 38 C0 25.46 0 12.92 0 0 Z " fill="#F6F8F9" transform="translate(170,375)"/>
<path d="M0 0 C19.55882353 0 19.55882353 0 25.4375 5.125 C27.62295088 9.14622962 27.92865971 12.52197138 27 17 C25.05672945 20.56760738 22.92113181 22.69295606 19 24 C14.99616868 24.13399703 11.0072645 24.04308887 7 24 C7 28.62 7 33.24 7 38 C4.69 38 2.38 38 0 38 C0 25.46 0 12.92 0 0 Z " fill="#F4F6F8" transform="translate(813,375)"/>
<path d="M0 0 C4.5590759 2.11765138 8.13439693 5.28112164 10 10 C10.53580592 15.6259622 10.18905893 19.16142783 7 24 C2.07675067 28.44293232 -0.95185622 29.36182654 -7.45703125 29.27734375 C-11.23091373 28.86575288 -13.24007187 27.55798217 -16 25 C-19.06002387 20.71596658 -19.63595881 16.62582599 -19.48828125 11.47265625 C-18.66209951 7.2888719 -16.26081783 4.63258687 -13 2 C-8.76818862 -0.53908683 -4.82335923 -0.79711502 0 0 Z " fill="#F7B72A" transform="translate(989,106)"/>
<path d="M0 0 C2.97 0 5.94 0 9 0 C10.71280242 5.0890579 12.42169983 10.17940363 14.12695312 15.27099609 C14.70790528 17.00378013 15.28993274 18.73620403 15.87304688 20.46826172 C16.70984713 22.95446929 17.54280229 25.44193615 18.375 27.9296875 C18.63748535 28.70682098 18.8999707 29.48395447 19.17041016 30.28463745 C21 35.77225659 21 35.77225659 21 38 C18.36 38 15.72 38 13 38 C12.67 35.36 12.34 32.72 12 30 C7.05 30 2.1 30 -3 30 C-3.66 32.64 -4.32 35.28 -5 38 C-7.31 38 -9.62 38 -12 38 C-11.42329143 32.90717554 -10.26343968 28.3538471 -8.49609375 23.53515625 C-8.2533522 22.85698349 -8.01061066 22.17881073 -7.76051331 21.48008728 C-6.99239698 19.338592 -6.21512872 17.20055701 -5.4375 15.0625 C-4.91149801 13.60113137 -4.3861015 12.13954465 -3.86132812 10.67773438 C-2.58120157 7.11593122 -1.29286284 3.55719889 0 0 Z " fill="#F4F6F8" transform="translate(449,375)"/>
<path d="M0 0 C3.3 0 6.6 0 10 0 C11.71088522 5.1080086 13.41983158 10.21666006 15.12695312 15.32592773 C15.70844605 17.0653656 16.29047636 18.80462391 16.87304688 20.54370117 C17.70843274 23.0377826 18.54190858 25.53249513 19.375 28.02734375 C19.63748535 28.80963852 19.8999707 29.59193329 20.17041016 30.39793396 C22 35.88612829 22 35.88612829 22 37 C19.36 37 16.72 37 14 37 C13.01 33.535 13.01 33.535 12 30 C7.38 30 2.76 30 -2 30 C-2.66 32.31 -3.32 34.62 -4 37 C-6.31 37 -8.62 37 -11 37 C-10.41280919 31.99061624 -9.34269917 27.55504945 -7.71484375 22.75390625 C-7.49429825 22.09792953 -7.27375275 21.44195282 -7.04652405 20.76609802 C-6.34918801 18.69626334 -5.64350868 16.62939047 -4.9375 14.5625 C-4.45972915 13.14927683 -3.98251035 11.7358669 -3.50585938 10.32226562 C-2.34360916 6.87932972 -1.17386505 3.43899571 0 0 Z " fill="#F5F7F9" transform="translate(122,376)"/>
<path d="M0 0 C3.031875 -0.061875 6.06375 -0.12375 9.1875 -0.1875 C10.60712036 -0.22846802 10.60712036 -0.22846802 12.05541992 -0.27026367 C16.84936401 -0.3175874 20.15522761 -0.20273273 24 3 C26.84729007 7.27093511 26.48875259 10.99228899 26 16 C24.95314104 19.0751482 24.12404968 20.36433052 21.30078125 21.9609375 C16.44385896 24.04111247 12.23572856 24.28048546 7 24 C7 28.29 7 32.58 7 37 C4.69 37 2.38 37 0 37 C0 24.79 0 12.58 0 0 Z " fill="#F1F4F6" transform="translate(376,376)"/>
<path d="M0 0 C1.03769531 -0.02578125 2.07539063 -0.0515625 3.14453125 -0.078125 C7.48577988 0.38999424 10.09674747 2.046411 13 5.25 C14.1875 7.25 14.1875 7.25 14.1875 10.25 C11 11 11 11 7.1875 11.25 C5.48499607 9.96274093 3.81685241 8.62868281 2.1875 7.25 C-1.30769344 6.90048066 -3.47910588 7.13886863 -6.8125 8.25 C-8.88925133 12.07122244 -9.08258273 15.45229582 -9.0625 19.75 C-9.06765625 20.8534375 -9.0728125 21.956875 -9.078125 23.09375 C-8.81553615 26.21392334 -8.13688782 28.43304814 -6.8125 31.25 C-1.61443456 32.18525582 -1.61443456 32.18525582 3.5625 31.75 C6.12089144 29.38840791 6.45122144 26.56325352 7.1875 23.25 C4.5475 23.25 1.9075 23.25 -0.8125 23.25 C-0.8125 21.93 -0.8125 20.61 -0.8125 19.25 C4.1375 19.25 9.0875 19.25 14.1875 19.25 C14.1875 25.52 14.1875 31.79 14.1875 38.25 C12.2075 38.25 10.2275 38.25 8.1875 38.25 C7.8575 37.26 7.5275 36.27 7.1875 35.25 C6.754375 35.724375 6.32125 36.19875 5.875 36.6875 C3.36306844 39.01336255 1.24175812 39.24488131 -2.125 39.5625 C-7.59072172 39.09930324 -10.41115546 36.76812325 -14.0625 32.8125 C-17.98604823 27.06730437 -18.4597373 22.08774886 -17.8125 15.25 C-16.53549453 8.66761724 -13.23389377 5.02538024 -7.8125 1.25 C-5.13594199 -0.08827901 -2.98815948 0.04421444 0 0 Z " fill="#F5F7F8" transform="translate(289.8125,374.75)"/>
<path d="M0 0 C2.85773163 2.02132237 4.13188344 3.63335208 5.5625 6.8125 C5.5625 7.8025 5.5625 8.7925 5.5625 9.8125 C2.3125 10.0625 2.3125 10.0625 -1.4375 9.8125 C-2.77083333 8.47916667 -4.10416667 7.14583333 -5.4375 5.8125 C-9.1050213 5.47832071 -9.1050213 5.47832071 -12.4375 5.8125 C-12.7675 7.4625 -13.0975 9.1125 -13.4375 10.8125 C-12.32375 11.369375 -11.21 11.92625 -10.0625 12.5 C-9.340625 12.86480469 -8.61875 13.22960937 -7.875 13.60546875 C-6.17875379 14.44543683 -4.46912246 15.25868558 -2.75 16.05078125 C-1.4196875 16.67533203 -1.4196875 16.67533203 -0.0625 17.3125 C0.77023437 17.6940625 1.60296875 18.075625 2.4609375 18.46875 C4.90535791 20.03172513 5.59246734 21.10769994 6.5625 23.8125 C7 27.25 7 27.25 6.5625 30.8125 C3.72425898 34.46166703 1.06211143 36.71259498 -3.4375 37.8125 C-8.55013221 38.37008573 -12.26105606 38.4328068 -16.875 36 C-17.720625 35.278125 -18.56625 34.55625 -19.4375 33.8125 C-20.05625 33.35875 -20.675 32.905 -21.3125 32.4375 C-23.02511248 29.96372641 -22.6320254 27.73038105 -22.4375 24.8125 C-19.625 24.5 -19.625 24.5 -16.4375 24.8125 C-14.6875 27.25 -14.6875 27.25 -13.4375 29.8125 C-9.64390675 31.70929663 -5.39354392 31.02974428 -1.4375 29.8125 C-1.4375 27.8325 -1.4375 25.8525 -1.4375 23.8125 C-1.994375 23.64234375 -2.55125 23.4721875 -3.125 23.296875 C-18.70165094 18.35023585 -18.70165094 18.35023585 -22.4375 11.8125 C-23.07644172 7.9788497 -22.78887165 6.38510565 -20.75 3.0625 C-15.0698109 -2.46417048 -7.23892469 -2.50071944 0 0 Z " fill="#F3F5F7" transform="translate(1080.4375,376.1875)"/>
<path d="M0 0 C3.06794876 1.28942774 3.86802712 2.27581243 6 5 C6.875 8.3125 6.875 8.3125 7 11 C4.69 11 2.38 11 0 11 C-0.33 10.01 -0.66 9.02 -1 8 C-2.45635371 7.77825067 -3.91522956 7.57301302 -5.375 7.375 C-6.18710937 7.25898438 -6.99921875 7.14296875 -7.8359375 7.0234375 C-8.55007813 7.01570313 -9.26421875 7.00796875 -10 7 C-12.20860033 8.75755855 -12.20860033 8.75755855 -12.08203125 10.9375 C-10.33846136 14.26098341 -7.05860164 14.85212255 -3.6875 16 C5.09019419 19.04003871 5.09019419 19.04003871 8 23 C8.85732443 26.42373067 8.75207632 29.55716172 8 33 C5.66938799 36.22924924 2.76121409 37.74626197 -1 39 C-7.07668961 39.61237957 -11.66095316 38.98986623 -17 36 C-20.08018666 33.02248623 -20.52419687 30.1870675 -21 26 C-18.69 26 -16.38 26 -14 26 C-13.67 27.65 -13.34 29.3 -13 31 C-11.39773045 31.22245393 -9.79303233 31.42746669 -8.1875 31.625 C-7.29417969 31.74101562 -6.40085937 31.85703125 -5.48046875 31.9765625 C-2.74309609 32.23500743 -2.74309609 32.23500743 0 30 C0.03533752 27.58405032 0.03533752 27.58405032 -1 25 C-3.32883041 23.69248073 -5.33248419 22.76730719 -7.8125 21.875 C-16.05318262 18.7541683 -16.05318262 18.7541683 -19 16 C-20.21260877 12.36217368 -20.39544552 9.82264001 -20 6 C-14.27165118 -0.93431699 -8.6222511 -0.92082293 0 0 Z " fill="#F4F6F8" transform="translate(732,375)"/>
<path d="M0 0 C3.3 0 6.6 0 10 0 C10 19.14 10 38.28 10 58 C6.7 58 3.4 58 0 58 C0 38.86 0 19.72 0 0 Z " fill="#FFFFFF" transform="translate(773,363)"/>
<path d="M0 0 C3.3 0 6.6 0 10 0 C10 19.14 10 38.28 10 58 C6.7 58 3.4 58 0 58 C0 38.86 0 19.72 0 0 Z " fill="#FFFFFF" transform="translate(333,363)"/>
<path d="M0 0 C8.25 0 16.5 0 25 0 C25 1.98 25 3.96 25 6 C19.06 6 13.12 6 7 6 C7 9.3 7 12.6 7 16 C12.28 16 17.56 16 23 16 C23 17.98 23 19.96 23 22 C17.72 22 12.44 22 7 22 C7 25.3 7 28.6 7 32 C12.61 32 18.22 32 24 32 C24 33.98 24 35.96 24 38 C16.08 38 8.16 38 0 38 C0 25.46 0 12.92 0 0 Z " fill="#F2F4F6" transform="translate(954,375)"/>
<path d="M0 0 C4.14829909 1.67697197 6.60624725 4.22523604 9 8 C8.75 10.3125 8.75 10.3125 8 12 C5.3125 12.3125 5.3125 12.3125 2 12 C0.33333333 10.33333333 -1.33333333 8.66666667 -3 7 C-6.04340127 6.16650049 -6.04340127 6.16650049 -9 7 C-11.70160176 9.67713073 -12.89429213 11.33495599 -13.49609375 15.12109375 C-13.64553432 23.64350938 -13.64553432 23.64350938 -10 31 C-6.24060688 32.16199424 -4.1592682 32.61014116 -0.625 30.75 C1.23276416 28.99137911 1.23276416 28.99137911 2 26 C4.31 26 6.62 26 9 26 C9.3125 28.6875 9.3125 28.6875 9 32 C5.82113607 35.88527814 2.7072362 38.61001288 -2.33203125 39.3359375 C-8.48169091 39.43278253 -12.09879657 38.82293868 -17 35 C-21.89086809 28.70748068 -22.69550401 21.71494266 -22 14 C-20.68528298 7.77180665 -18.15819527 4.62171158 -13 1 C-9.07486948 -0.96256526 -4.28912771 -0.34188699 0 0 Z " fill="#F4F6F8" transform="translate(497,375)"/>
<path d="M0 0 C3.21778169 2.24496397 4.82575564 4.43793348 6.6875 7.875 C6.6875 8.865 6.6875 9.855 6.6875 10.875 C4.0475 10.875 1.4075 10.875 -1.3125 10.875 C-1.56 9.9159375 -1.56 9.9159375 -1.8125 8.9375 C-3.60323914 6.47523369 -4.27258844 6.38971487 -7.1875 5.875 C-10.42123273 5.61090205 -11.03454803 5.66831777 -13.75 7.6875 C-17.32435113 12.69159159 -16.85818706 17.89582897 -16.3125 23.875 C-15.38951493 26.8496808 -14.66840078 27.63991464 -12.3125 29.875 C-8.86913226 31.20048832 -8.86913226 31.20048832 -5.3125 30.875 C-2.89968117 29.03363826 -1.66099087 27.57198174 -0.3125 24.875 C1.9975 24.875 4.3075 24.875 6.6875 24.875 C6.23536421 29.73545979 5.15608739 32.40641261 1.6875 35.875 C-2.63466088 38.46829653 -7.41406476 38.42888667 -12.3125 37.875 C-17.75372966 35.9243705 -20.32122315 32.95896307 -23.39453125 28.19921875 C-25.75841592 22.21406396 -25.37969203 13.19568236 -23.4375 7.15234375 C-21.43157033 3.62217147 -19.54527774 2.01824784 -16.0625 -0.125 C-10.32636435 -1.65463617 -5.6553861 -1.92069716 0 0 Z " fill="#F6F8F9" transform="translate(1011.3125,376.125)"/>
<path d="M0 0 C7.92 0 15.84 0 24 0 C24 1.98 24 3.96 24 6 C18.06 6 12.12 6 6 6 C6 9.3 6 12.6 6 16 C11.61 16 17.22 16 23 16 C23 17.98 23 19.96 23 22 C17.39 22 11.78 22 6 22 C6 25.3 6 28.6 6 32 C11.94 32 17.88 32 24 32 C24 33.98 24 35.96 24 38 C16.08 38 8.16 38 0 38 C0 25.46 0 12.92 0 0 Z " fill="#F5F7F8" transform="translate(516,375)"/>
<path d="M0 0 C7.92 0 15.84 0 24 0 C24 1.65 24 3.3 24 5 C18.06 5 12.12 5 6 5 C6 8.3 6 11.6 6 15 C11.61 15 17.22 15 23 15 C23 16.98 23 18.96 23 21 C17.72 21 12.44 21 7 21 C7 24.3 7 27.6 7 31 C12.61 31 18.22 31 24 31 C24 32.98 24 34.96 24 37 C16.08 37 8.16 37 0 37 C0 24.79 0 12.58 0 0 Z " fill="#F9FAFB" transform="translate(603,376)"/>
<path d="M0 0 C3.47476458 2.01985201 5.70397717 4.1119315 7 8 C7.53550042 13.98318742 7.49180719 18.88699662 4 24 C1.65706923 26.42372149 0.41264495 26.93854224 -2.9375 27.4375 C-6.78111136 26.88841266 -8.30795295 25.76682614 -11 23 C-13.77892426 18.5007893 -13.55697523 13.12248427 -13 8 C-11.6875 5.0625 -11.6875 5.0625 -10 3 C-9.5875 2.401875 -9.175 1.80375 -8.75 1.1875 C-5.76762573 -0.83625397 -3.49354218 -0.47370063 0 0 Z " fill="#053865" transform="translate(904,381)"/>
<path d="M0 0 C0.66 0 1.32 0 2 0 C2.16113281 0.55429687 2.32226562 1.10859375 2.48828125 1.6796875 C3.42553898 4.17608013 4.26891835 5.95607227 6 8 C9.62223923 9.30296375 13.17149062 9.73596487 17 10 C16.55527344 10.36609375 16.11054687 10.7321875 15.65234375 11.109375 C12.6156837 14.01460785 11.06572371 15.82719686 10.82421875 20.13671875 C11.09651597 23.12491546 11.46675799 26.04777831 12 29 C11.13375 28.690625 10.2675 28.38125 9.375 28.0625 C2.39337975 25.84233825 2.39337975 25.84233825 -4.375 27.9375 C-5.59188424 28.60974879 -6.8033603 29.29234251 -8 30 C-7.93039062 29.19175781 -7.86078125 28.38351563 -7.7890625 27.55078125 C-7.22710417 21.53766238 -7.22710417 21.53766238 -9.3359375 16.16015625 C-11.16949655 14.70032588 -11.16949655 14.70032588 -14 13 C-14 12.34 -14 11.68 -14 11 C-13.32453125 10.96003906 -12.6490625 10.92007813 -11.953125 10.87890625 C-9.05741221 10.53995721 -6.69600714 10.12826631 -4 9 C-1.95976278 6.19595537 -0.91745 3.32746791 0 0 Z " fill="#F2B62D" transform="translate(953,31)"/>
<path d="M0 0 C9.9 0 19.8 0 30 0 C30 1.65 30 3.3 30 5 C26.37 5 22.74 5 19 5 C19 15.56 19 26.12 19 37 C16.69 37 14.38 37 12 37 C12 26.44 12 15.88 12 5 C8.04 5 4.08 5 0 5 C0 3.35 0 1.7 0 0 Z " fill="#F7F8FA" transform="translate(1022,376)"/>
<path d="M0 0 C9.9 0 19.8 0 30 0 C30 1.65 30 3.3 30 5 C26.04 5 22.08 5 18 5 C18 15.56 18 26.12 18 37 C15.69 37 13.38 37 11 37 C11 26.44 11 15.88 11 5 C7.37 5 3.74 5 0 5 C0 3.35 0 1.7 0 0 Z " fill="#F6F8F9" transform="translate(676,376)"/>
<path d="M0 0 C9.9 0 19.8 0 30 0 C30 1.65 30 3.3 30 5 C26.04 5 22.08 5 18 5 C18 15.56 18 26.12 18 37 C15.69 37 13.38 37 11 37 C11 26.44 11 15.88 11 5 C7.37 5 3.74 5 0 5 C0 3.35 0 1.7 0 0 Z " fill="#F6F8F9" transform="translate(39,376)"/>
<path d="M0 0 C2.31 0 4.62 0 7 0 C7 10.23 7 20.46 7 31 C11.95 31 16.9 31 22 31 C22 32.98 22 34.96 22 37 C14.74 37 7.48 37 0 37 C0 24.79 0 12.58 0 0 Z " fill="#F1F4F6" transform="translate(411,376)"/>
<path d="M0 0 C2.31 0 4.62 0 7 0 C7.0743839 4.46570449 7.12871171 8.93107684 7.16479492 13.3972168 C7.17984353 14.91518438 7.20028738 16.43310876 7.22631836 17.95092773 C7.26287653 20.13796677 7.27976523 22.32442896 7.29296875 24.51171875 C7.3086792 25.82615967 7.32438965 27.14060059 7.34057617 28.49487305 C6.97940589 32.21194955 6.25079136 34.05994834 4 37 C-0.21178628 39.52707177 -4.22889146 39.30292753 -9 39 C-11.5 38 -11.5 38 -13 37 C-13 34.69 -13 32.38 -13 30 C-12.01 30.33 -11.02 30.66 -10 31 C-7.3071504 31.17812624 -4.70558632 31.08727698 -2 31 C-0.11368457 29.11368457 -0.75734708 25.85799307 -0.68359375 23.33984375 C-0.66281265 22.67537735 -0.64203156 22.01091095 -0.62062073 21.3263092 C-0.55506342 19.19681457 -0.49621215 17.06719332 -0.4375 14.9375 C-0.39432061 13.49673153 -0.35070651 12.05597601 -0.30664062 10.61523438 C-0.19937607 7.0769596 -0.09812629 3.53854131 0 0 Z " fill="#F3F5F7" transform="translate(936,375)"/>
<path d="M0 0 C2.31 0 4.62 0 7 0 C7 12.54 7 25.08 7 38 C4.69 38 2.38 38 0 38 C0 25.46 0 12.92 0 0 Z " fill="#FFFFFF" transform="translate(213,375)"/>
<path d="M0 0 C2.31 0 4.62 0 7 0 C7 12.54 7 25.08 7 38 C4.69 38 2.38 38 0 38 C0 25.46 0 12.92 0 0 Z " fill="#FFFFFF" transform="translate(152,375)"/>
<path d="M0 0 C9.67305586 -0.28450164 9.67305586 -0.28450164 13 2 C13.875 5.4375 13.875 5.4375 14 9 C12 12 12 12 9 13 C7.43881572 13.06740865 5.8749748 13.08514456 4.3125 13.0625 C2.889375 13.041875 1.46625 13.02125 0 13 C0 8.71 0 4.42 0 0 Z " fill="#0B3D69" transform="translate(855,381)"/>
<path d="M0 0 C8.3984375 -0.1953125 8.3984375 -0.1953125 11 0 C13 2 13 2 13.375 5.4375 C13 9 13 9 11.5625 10.9375 C7.654088 12.55806107 4.21186848 12.18581773 0 12 C0 8.04 0 4.08 0 0 Z " fill="#033664" transform="translate(83,382)"/>
<path d="M0 0 C8.262 -0.486 8.262 -0.486 11.5625 1.6875 C13.28087645 4.45184472 13.57368682 5.80374487 13 9 C11.796875 10.640625 11.796875 10.640625 10 12 C7.51953125 12.29296875 7.51953125 12.29296875 4.8125 12.1875 C3.224375 12.125625 1.63625 12.06375 0 12 C0 8.04 0 4.08 0 0 Z " fill="#0B3D69" transform="translate(820,381)"/>
<path d="M0 0 C1.60875 -0.04125 3.2175 -0.0825 4.875 -0.125 C5.77992188 -0.14820313 6.68484375 -0.17140625 7.6171875 -0.1953125 C10 0 10 0 12 2 C12.25 5.5 12.25 5.5 12 9 C10 11 10 11 7.6171875 11.1953125 C6.71226562 11.17210937 5.80734375 11.14890625 4.875 11.125 C2.461875 11.063125 2.461875 11.063125 0 11 C0 7.37 0 3.74 0 0 Z " fill="#023663" transform="translate(383,382)"/>
<path d="M0 0 C1.32 0.33 2.64 0.66 4 1 C5.25 4.0625 5.25 4.0625 6 7 C6.66 7 7.32 7 8 7 C8.37125 5.5459375 8.37125 5.5459375 8.75 4.0625 C9.1625 3.051875 9.575 2.04125 10 1 C11.32 0.67 12.64 0.34 14 0 C14 4.29 14 8.58 14 13 C13.34 13 12.68 13 12 13 C11.67 10.36 11.34 7.72 11 5 C10.01 6.98 9.02 8.96 8 11 C7.01 10.67 6.02 10.34 5 10 C3.8125 7.4375 3.8125 7.4375 3 5 C2.67 7.64 2.34 10.28 2 13 C1.34 13 0.68 13 0 13 C0 8.71 0 4.42 0 0 Z " fill="#DAEEF6" transform="translate(1076,44)"/>
<path d="M0 0 C1.73546076 2.60319113 2.65175233 4.52267237 3.625 7.4375 C3.88539063 8.19933594 4.14578125 8.96117187 4.4140625 9.74609375 C5 12 5 12 5 16 C1.7 16 -1.6 16 -5 16 C-4.54548816 14.26982492 -4.08621143 12.54090123 -3.625 10.8125 C-3.36976563 9.84957031 -3.11453125 8.88664062 -2.8515625 7.89453125 C-2.05233704 5.17789793 -1.0968638 2.60862825 0 0 Z " fill="#13436E" transform="translate(453,384)"/>
<path d="M0 0 C0.66 0 1.32 0 2 0 C2.67220351 1.93558599 3.33758077 3.87354372 4 5.8125 C4.556875 7.43091797 4.556875 7.43091797 5.125 9.08203125 C6 12 6 12 6 15 C2.7 15 -0.6 15 -4 15 C-2.91266548 9.87399439 -1.77362508 4.94081272 0 0 Z " fill="#13436D" transform="translate(126,385)"/>
<path d="M0 0 C3.3 0 6.6 0 10 0 C10 0.66 10 1.32 10 2 C8.68 2 7.36 2 6 2 C6 5.63 6 9.26 6 13 C5.34 13 4.68 13 4 13 C4 9.37 4 5.74 4 2 C2.68 2 1.36 2 0 2 C0 1.34 0 0.68 0 0 Z " fill="#D1F3F8" transform="translate(1064,44)"/>
<path d="M0 0 C0.99 0 1.98 0 3 0 C3 4.29 3 8.58 3 13 C2.34 13 1.68 13 1 13 C1 9.7 1 6.4 1 3 C0.34 3 -0.32 3 -1 3 C-0.67 2.01 -0.34 1.02 0 0 Z " fill="#D8E2F0" transform="translate(1087,44)"/>
<path d="M0 0 C0.99 0 1.98 0 3 0 C2.67 4.29 2.34 8.58 2 13 C1.34 13 0.68 13 0 13 C0 8.71 0 4.42 0 0 Z " fill="#C0F2FA" transform="translate(1076,44)"/>
</svg>
